<?xml version="1.0" encoding="utf-8"?>
<!-- Generator: Adobe Illustrator 23.0.1, SVG Export Plug-In . SVG Version: 6.00 Build 0)  -->
<svg version="1.1" id="Layer_1" xmlns="http://www.w3.org/2000/svg" xmlns:xlink="http://www.w3.org/1999/xlink" x="0px" y="0px"
	 viewBox="0 0 1728 1296" style="enable-background:new 0 0 1728 1296;" xml:space="preserve">
<style type="text/css">
	.st0{display:none;}
	.st1{fill:#FFFFFF;}
</style>
<path class="st0" d="M759.84,1212.07c-136.39,22.23-272.79,44.45-409.2,66.68C287.67,892.27,224.69,505.79,161.7,119.24
	C572.36,52.32,983.05-14.6,1393.85-81.55c62.98,386.46,125.96,772.98,188.95,1159.51c-219.36,35.75-438.77,71.5-658.19,107.26
	c-1.68,0.14-3.38,0.17-5.04,0.44c-19.73,3.19-39.46,6.35-59.16,9.7c-2.91,0.5-4.16-0.33-5.22-2.94c-1.62-3.97-3.51-7.86-5.59-11.61
	c-10.99-19.7-21.92-39.43-33.16-58.98c-14.86-25.88-29.36-52-45.16-77.29c-17.33-27.74-35.77-54.8-51.17-83.72
	c-13.47-25.3-26.85-50.66-40.68-75.77c-5.84-10.6-12.63-20.69-19.18-30.89c-10.44-16.26-15.78-34.6-21.29-52.79
	c-2.59-8.54,1.99-15.22,10.43-18.38c6.09-2.28,12.25-2.35,18.51-1.21c10.95,1.99,21.73,1.78,32.52-1.37
	c7.37-2.15,14.89-4.06,22.48-5.15c10.97-1.58,22.06-2.25,33.09-3.44c52.98-5.69,106.13-9.05,159.39-9.67
	c50.61-0.59,101.24,0.14,151.86-0.06c31.44-0.13,62.87-1.01,94.31-1.39c26.61-0.32,53.22-0.4,79.84-0.57
	c14.6-0.09,29.23,0.36,43.79-0.38c15.93-0.82,23.38-9.23,21.99-25.04c-0.77-8.74-3.78-17.28-5.53-25.95c-1.22-6-2.02-12.09-3-18.14
	c0.4-0.11,0.79-0.23,1.19-0.34c36.54,25.59,70.24,54.65,103.69,84.89c-8.17,2.58-15.64,4.93-23.1,7.3
	c-17.9,5.7-35.81,11.38-53.68,17.17c-2.49,0.81-4.04,0.5-5.45-1.88c-2.26-3.81-5.07-7.3-7.28-11.13
	c-6.75-11.68-17.39-14.51-31.2-10.12c-5.44,1.73-6.96,5.37-4.8,10.73c2.39,5.92,4.7,11.9,7.45,17.65
	c4.88,10.21,9.22,20.82,15.33,30.27c7.68,11.87,18.75,12.78,29.21,3.24c23.35-21.28,51.27-30.78,82.22-33.18
	c9.61-0.75,19.15-2.37,28.71-3.67c5.95-0.81,9.76-4.43,12.54-9.56c1.6-2.95,1.62-5.57-0.87-7.76c-5.77-5.06-11.21-10.69-17.62-14.77
	c-16.15-10.25-31.53-21.49-45.55-34.45c-34.24-31.64-69.06-62.62-105.02-92.3c-3.08-2.55-6.48-5.01-10.15-6.5
	c-12.7-5.17-22.78,2.29-20.97,15.81c2.01,15,4.89,29.89,7.36,44.83c1.72,10.39,3.39,20.8,5.18,31.73c-4.06,0.66-6.98,1.38-9.94,1.56
	c-4.55,0.28-9.11,0.24-13.67,0.24c-47.61-0.03-95.22-0.07-142.83-0.14c-24.91-0.04-49.84,0.34-74.73-0.31
	c-31.54-0.83-63.06-3.22-94.6-3.65c-36.38-0.49-72.79,0.46-109.18,0.7c-44.74,0.3-89.49,0.76-134.23,0.68
	c-43.96-0.08-87.91-0.76-131.87-1.2c-15.14-0.15-30.29-0.52-45.19,3.04c-5.95,1.42-11.63,3.21-15.39,8.47
	c-3.93,5.5-6.4,11.76-2.59,17.87c4.61,7.39,11.57,12.05,20.49,13.77c6.85,1.32,13.7,3.08,20.26,5.43
	c6.24,2.24,12.09,5.54,18.14,8.31c22.98,10.48,41.88,25.62,55.63,47.15c10.89,17.06,23.55,32.81,37.52,47.54
	c16.01,16.87,30.73,34.9,42.99,54.68c9.54,15.38,17.65,31.64,27.1,47.09c15.5,25.35,32.41,49.88,47.22,75.62
	c26.86,46.66,52.62,93.95,78.83,140.98c0.29,0.51,0.34,1.16,0.6,2.13c-1.8,0.29-3.32,0.54-4.84,0.79
	c-23.46,3.82-46.93,7.64-70.39,11.49C763.37,1211.11,761.62,1211.64,759.84,1212.07z M760.9,449.07
	c4.72-9.98,9.13-19.87,14.01-29.53c15.33-30.39,3.29-63.69-22.63-80.32c-20.74-13.31-44.21-17.21-68.35-15.09
	c-16.86,1.47-33.56,4.87-50.3,7.62c-24.99,4.1-49.96,8.4-74.94,12.6c-10.49,1.76-17.93,7.3-20.42,17.86
	c-3.66,15.56-7.56,31.12-9.9,46.9c-2.17,14.6-2.18,29.51-3.61,44.24c-1.53,15.66-3.72,31.25-1.91,47.04c0.79,6.9-1.03,8.6-7.79,8.77
	c-8.09,0.2-16.17,0.95-23.48,4.95c-9.01,4.93-10.63,12.91-4.13,20.73c5.96,7.16,13.41,12.11,22.8,13.2
	c5.78,0.67,11.67,0.63,17.5,0.61c3.08-0.01,5.31,0.26,6.47,3.8c2.61,8.03,5.76,15.88,8.46,23.88c7.37,21.84,14.48,43.76,21.95,65.57
	c4.21,12.28,12.88,19.7,25.84,21.69c14.25,2.18,23.68-9.09,18.83-22.54c-8.72-24.14-17.73-48.19-26.26-72.39
	c-2.87-8.15-4.67-16.68-7.17-25.76c6.1-0.27,11.13-0.52,16.15-0.71c15.23-0.59,30.46-1.16,45.69-1.72c7.3-0.27,12.21,2.89,15.5,9.6
	c4.29,8.74,9.87,16.87,13.84,25.73c5.95,13.3,11.46,26.85,16.29,40.6c6.31,17.94,15.43,32.88,35.09,38.33
	c2.12,0.59,4.92,1.33,6.58,0.45c3.93-2.09,6.77-1.29,9.97,1.27c2.82,2.26,5.86,4.45,9.15,5.87c8.85,3.84,15.67,0.43,18.52-8.84
	c2.55-8.29,1.33-16.28-2.09-24.02c-9.63-21.81-19.6-43.48-28.89-65.43c-7.26-17.14-13.72-34.63-20.7-52.36
	c17.22-11.59,35.72-18.68,56.81-19.5c0.57,3.5,1.44,6.55,1.51,9.62c0.48,20.21,0.09,40.46,1.3,60.61
	c1.96,32.59,8.24,64.44,19.66,95.14c5.43,14.61,12.8,28.05,25.25,37.96c3.01,2.39,6.49,4.52,10.1,5.76
	c6.54,2.24,11.91-0.41,16.41-5.35c4.3-4.73,4.83-9.99,2.31-15.6c-1.28-2.84-2.97-5.5-4.62-8.15c-3.71-5.98-8.4-11.53-11.07-17.92
	c-4.81-11.51-9.01-23.35-12.43-35.35c-6.98-24.47-10.59-49.47-9.87-75.01c0.52-18.47,3.94-36.75,2.13-55.42
	c-1.17-12.02-5.6-20.61-16.73-25.53C781.55,458.44,771.47,453.83,760.9,449.07z M875.97,563.83c4.32,2.6,8.08,4.44,11.37,6.9
	c39.68,29.66,82.78,52.62,130.54,66.28c63.92,18.28,126.64,14.99,187.87-11.38c20.46-8.81,37.96-21.48,49.49-41.01
	c14.21-24.06,15.89-49.67,9-76.38c-3.87-15.01-12.1-26.81-24.64-35.54c-18.8-13.1-39.17-22.85-61.73-27.67
	c-23.66-5.05-47.4-4.79-71.21-1.39c-15.74,2.24-30.97,6.19-44.96,14.02c-14.28,7.98-26.35,18.38-34.11,33.02
	c-6.23,11.76-4.51,22.67,4.54,32.39c1.6,1.71,3.3,3.38,5.16,4.79c13.51,10.27,28.12,18.51,44.38,23.57
	c15.34,4.77,30.95,6.26,46.74,2.57c12.25-2.86,21.42-9.97,27.13-21.24c3.74-7.39,2.15-14.31-4.1-19.26
	c-6.51-5.15-19.43-7.78-28.48-0.85c-4.68,3.59-10.1,6.58-15.63,8.62c-14.18,5.23-34.01-1.2-42.14-13.04
	c-4.65-6.76-4.08-12.57,1.93-18.12c1.81-1.67,3.83-3.17,5.92-4.46c9.51-5.88,19.77-9.95,30.63-12.56
	c14.43-3.47,29.14-4.24,43.9-4.72c23.43-0.75,44.88,5.57,64.61,17.93c11.38,7.13,19.63,17.06,20.91,30.63
	c2.36,25.25-5.72,56.42-38.31,73.31c-40.6,21.05-83.6,28.65-128.92,23.54c-54.06-6.09-102.22-26.4-144.65-60.4
	c-9.13-7.31-18.35-14.51-27.87-22.03c5.26-4.92,10-9.79,15.18-14.14c35.5-29.75,71.1-59.37,106.61-89.1
	c2.37-1.99,4.61-4.29,6.39-6.81c4.39-6.2,3.57-13.07-1.84-18.43c-10.71-10.63-26.87-11.4-38.26-1.67
	c-38.49,32.87-76.94,65.79-115.42,98.69c-1.06,0.9-2.16,1.75-3.77,3.06c-1.4-2.38-3.16-4.3-3.73-6.53
	c-2.14-8.34-3.68-16.83-5.81-25.17c-7.13-27.93-14.32-55.85-21.67-83.72c-3.12-11.85-9.91-21.47-19.24-29.32
	c-6.23-5.24-15.07-5.28-22.97-0.2c-5.75,3.7-6.91,8.13-4.4,16.91c10.76,37.64,21.73,75.22,32.24,112.92
	c11.91,42.74,23.36,85.61,35.14,128.39c3.78,13.72,10.41,26.15,18.62,37.69c4.32,6.07,10.38,8.12,16.85,5.28
	c12.15-5.33,16.46-13.9,10.8-25.76C887.66,611.6,881.98,588.29,875.97,563.83z"/>
<path class="st1" d="M840.39,1198.54c-0.27-0.97-0.32-1.61-0.6-2.13c-26.2-47.04-51.97-94.33-78.83-140.98
	c-14.82-25.74-31.72-50.26-47.22-75.62c-9.45-15.44-17.56-31.71-27.1-47.09c-12.27-19.78-26.98-37.81-42.99-54.68
	c-13.97-14.72-26.63-30.48-37.52-47.54c-13.75-21.53-32.65-36.67-55.63-47.15c-6.06-2.76-11.91-6.07-18.14-8.31
	c-6.56-2.35-13.4-4.12-20.26-5.43c-8.92-1.72-15.88-6.38-20.49-13.77c-3.82-6.11-1.34-12.37,2.59-17.87
	c3.76-5.26,9.44-7.05,15.39-8.47c14.9-3.56,30.05-3.19,45.19-3.04c43.96,0.43,87.91,1.11,131.87,1.2
	c44.74,0.09,89.49-0.38,134.23-0.68c36.39-0.24,72.8-1.2,109.18-0.7c31.54,0.43,63.05,2.82,94.6,3.65
	c24.9,0.65,49.82,0.28,74.73,0.31c47.61,0.07,95.22,0.11,142.83,0.14c4.56,0,9.13,0.04,13.67-0.24c2.96-0.18,5.88-0.9,9.94-1.56
	c-1.78-10.94-3.46-21.34-5.18-31.73c-2.47-14.94-5.35-29.83-7.36-44.83c-1.81-13.52,8.27-20.99,20.97-15.81
	c3.66,1.49,7.06,3.96,10.15,6.5c35.96,29.68,70.78,60.66,105.02,92.3c14.02,12.96,29.39,24.2,45.55,34.45
	c6.42,4.07,11.86,9.71,17.62,14.77c2.49,2.19,2.48,4.81,0.87,7.76c-2.78,5.13-6.59,8.75-12.54,9.56c-9.56,1.3-19.1,2.92-28.71,3.67
	c-30.95,2.4-58.87,11.9-82.22,33.18c-10.46,9.53-21.53,8.62-29.21-3.24c-6.11-9.45-10.46-20.05-15.33-30.27
	c-2.75-5.76-5.05-11.73-7.45-17.65c-2.17-5.36-0.64-9,4.8-10.73c13.81-4.38,24.45-1.56,31.2,10.12c2.21,3.83,5.02,7.32,7.28,11.13
	c1.41,2.37,2.97,2.68,5.45,1.88c17.87-5.79,35.78-11.47,53.68-17.17c7.46-2.37,14.92-4.72,23.1-7.3
	c-33.45-30.24-67.15-59.3-103.69-84.89c-0.4,0.11-0.79,0.23-1.19,0.34c0.99,6.05,1.79,12.14,3,18.14
	c1.76,8.68,4.76,17.21,5.53,25.95c1.39,15.81-6.05,24.22-21.99,25.04c-14.57,0.75-29.19,0.29-43.79,0.38
	c-26.61,0.17-53.23,0.25-79.84,0.57c-31.44,0.38-62.87,1.26-94.31,1.39c-50.62,0.21-101.24-0.52-151.86,0.06
	c-53.26,0.62-106.41,3.98-159.39,9.67c-11.03,1.18-22.12,1.86-33.09,3.44c-7.59,1.09-15.11,3-22.48,5.15
	c-10.79,3.15-21.58,3.35-32.52,1.37c-6.26-1.14-12.42-1.06-18.51,1.21c-8.44,3.16-13.02,9.84-10.43,18.38
	c5.51,18.19,10.84,36.53,21.29,52.79c6.55,10.2,13.34,20.29,19.18,30.89c13.83,25.11,27.21,50.47,40.68,75.77
	c15.4,28.93,33.84,55.98,51.17,83.72c15.8,25.3,30.3,51.42,45.16,77.29c11.23,19.56,22.17,39.28,33.16,58.98
	c2.09,3.75,3.98,7.64,5.59,11.61c1.06,2.61,0.89,3.61,3.8,3.11"/>
<path class="st1" d="M760.9,449.07c10.57,4.76,20.65,9.36,30.8,13.84c11.14,4.92,15.57,13.51,16.73,25.53
	c1.82,18.67-1.61,36.95-2.13,55.42c-0.71,25.53,2.9,50.54,9.87,75.01c3.42,12,7.62,23.84,12.43,35.35
	c2.67,6.4,7.36,11.95,11.07,17.92c1.65,2.65,3.34,5.31,4.62,8.15c2.53,5.61,2,10.87-2.31,15.6c-4.49,4.94-9.87,7.59-16.41,5.35
	c-3.61-1.24-7.09-3.37-10.1-5.76c-12.46-9.91-19.82-23.35-25.25-37.96c-11.42-30.7-17.7-62.55-19.66-95.14
	c-1.21-20.16-0.82-40.41-1.3-60.61c-0.07-3.07-0.94-6.12-1.51-9.62c-21.09,0.82-39.59,7.91-56.81,19.5
	c6.97,17.74,13.43,35.22,20.7,52.36c9.3,21.95,19.26,43.62,28.89,65.43c3.42,7.75,4.64,15.73,2.09,24.02
	c-2.85,9.26-9.67,12.68-18.52,8.84c-3.29-1.43-6.33-3.62-9.15-5.87c-3.2-2.56-6.05-3.36-9.97-1.27c-1.66,0.88-4.46,0.14-6.58-0.45
	c-19.66-5.45-28.78-20.39-35.09-38.33c-4.83-13.75-10.34-27.3-16.29-40.6c-3.97-8.87-9.55-16.99-13.84-25.73
	c-3.29-6.71-8.2-9.87-15.5-9.6c-15.23,0.56-30.46,1.13-45.69,1.72c-5.03,0.19-10.05,0.44-16.15,0.71
	c2.49,9.09,4.29,17.61,7.17,25.76c8.54,24.21,17.54,48.25,26.26,72.39c4.86,13.45-4.58,24.72-18.83,22.54
	c-12.96-1.98-21.64-9.41-25.84-21.69c-7.47-21.8-14.59-43.73-21.95-65.57c-2.7-8-5.85-15.85-8.46-23.88
	c-1.15-3.54-3.38-3.81-6.47-3.8c-5.84,0.02-11.72,0.07-17.5-0.61c-9.39-1.09-16.84-6.04-22.8-13.2c-6.51-7.82-4.88-15.8,4.13-20.73
	c7.31-4,15.39-4.75,23.48-4.95c6.76-0.17,8.58-1.88,7.79-8.77c-1.81-15.79,0.38-31.39,1.91-47.04c1.44-14.73,1.44-29.64,3.61-44.24
	c2.35-15.78,6.24-31.35,9.9-46.9c2.48-10.56,9.93-16.09,20.42-17.86c24.98-4.2,49.94-8.5,74.94-12.6
	c16.74-2.75,33.44-6.14,50.3-7.62c24.14-2.11,47.61,1.79,68.35,15.09c25.92,16.63,37.96,49.93,22.63,80.32
	C770.03,429.21,765.61,439.1,760.9,449.07z M698.1,462.2c4.95-5.15,9.18-9.34,13.17-13.75c14.05-15.48,24.92-32.76,29.76-53.38
	c3.98-16.97-4.54-31.97-21.28-36.84c-21.43-6.22-42.79-2.83-64.62,0.69c0.89,1.42,1.52,2.37,2.08,3.35
	c3.69,6.43,8.2,12.54,10.88,19.37c6.75,17.2,12.6,34.76,18.97,52.12C690.43,442.99,694.16,452.1,698.1,462.2z M635.6,502.8
	c-0.55-1.91-0.76-2.79-1.06-3.64c-4-11.07-9.78-21.2-16.33-30.95c-8.54-12.72-17.89-25.04-25.03-38.52
	c-7.32-13.82-17.13-25.62-26.17-38.33c-3.04,4.1-5.06,8.14-5.7,13.2c-3.88,30.68-1.25,61.03,4.03,91.27
	c0.88,5.04,4.07,7.65,9.71,7.82c7.4,0.23,14.82,0.18,22.22,0.05C609.84,503.49,622.41,503.12,635.6,502.8z M598.26,373.77
	c5.83,11.14,11.53,21.92,17.14,32.75c10.51,20.3,22.43,39.85,30.98,61.2c4.04,10.08,10.01,19.38,15.19,28.99
	c0.79,1.46,2.09,2.64,3.15,3.96c-12.22-45.72-27.18-90.19-46.69-133.24C611.35,369.57,604.96,371.62,598.26,373.77z"/>
<path class="st1" d="M875.97,563.83c6.02,24.47,11.69,47.77,22.11,69.61c5.65,11.86,1.35,20.43-10.8,25.76
	c-6.46,2.83-12.53,0.79-16.85-5.28c-8.22-11.55-14.84-23.97-18.62-37.69c-11.78-42.78-23.23-85.65-35.14-128.39
	c-10.51-37.71-21.48-75.29-32.24-112.92c-2.51-8.78-1.35-13.21,4.4-16.91c7.9-5.08,16.74-5.04,22.97,0.2
	c9.33,7.85,16.12,17.47,19.24,29.32c7.35,27.88,14.55,55.79,21.67,83.72c2.13,8.34,3.68,16.83,5.81,25.17
	c0.57,2.23,2.33,4.15,3.73,6.53c1.62-1.31,2.72-2.15,3.77-3.06c38.47-32.9,76.92-65.82,115.42-98.69
	c11.39-9.73,27.55-8.95,38.26,1.67c5.4,5.36,6.22,12.23,1.84,18.43c-1.78,2.52-4.02,4.82-6.39,6.81
	c-35.52,29.73-71.12,59.35-106.61,89.1c-5.18,4.34-9.92,9.21-15.18,14.14c9.52,7.52,18.74,14.72,27.87,22.03
	c42.43,34,90.59,54.31,144.65,60.4c45.31,5.11,88.31-2.49,128.92-23.54c32.59-16.89,40.67-48.05,38.31-73.31
	c-1.27-13.57-9.52-23.5-20.91-30.63c-19.74-12.36-41.18-18.68-64.61-17.93c-14.76,0.47-29.47,1.25-43.9,4.72
	c-10.86,2.61-21.13,6.68-30.63,12.56c-2.1,1.3-4.11,2.79-5.92,4.46c-6.01,5.55-6.57,11.36-1.93,18.12
	c8.13,11.84,27.96,18.27,42.14,13.04c5.53-2.04,10.95-5.03,15.63-8.62c9.05-6.93,21.97-4.3,28.48,0.85
	c6.25,4.95,7.84,11.87,4.1,19.26c-5.7,11.26-14.88,18.38-27.13,21.24c-15.79,3.69-31.4,2.2-46.74-2.57
	c-16.26-5.06-30.87-13.3-44.38-23.57c-1.86-1.41-3.56-3.08-5.16-4.79c-9.05-9.72-10.77-20.64-4.54-32.39
	c7.76-14.64,19.83-25.04,34.11-33.02c13.99-7.82,29.22-11.77,44.96-14.02c23.81-3.39,47.55-3.66,71.21,1.39
	c22.56,4.82,42.93,14.56,61.73,27.67c12.53,8.73,20.76,20.53,24.64,35.54c6.89,26.71,5.2,52.32-9,76.38
	c-11.53,19.53-29.03,32.2-49.49,41.01c-61.23,26.38-123.95,29.67-187.87,11.38c-47.76-13.66-90.86-36.62-130.54-66.28
	C884.05,568.27,880.29,566.43,875.97,563.83z"/>
<path class="st0" d="M698.1,462.2c-3.94-10.1-7.67-19.21-11.06-28.44c-6.37-17.36-12.21-34.91-18.97-52.12
	c-2.68-6.83-7.19-12.94-10.88-19.37c-0.56-0.98-1.19-1.92-2.08-3.35c21.84-3.52,43.2-6.91,64.62-0.69
	c16.74,4.86,25.27,19.86,21.28,36.84c-4.84,20.62-15.71,37.9-29.76,53.38C707.28,452.85,703.05,457.04,698.1,462.2z"/>
<path class="st0" d="M635.6,502.8c-13.19,0.32-25.76,0.69-38.34,0.9c-7.41,0.13-14.82,0.18-22.22-0.05
	c-5.64-0.18-8.83-2.78-9.71-7.82c-5.28-30.24-7.91-60.59-4.03-91.27c0.64-5.05,2.66-9.1,5.7-13.2
	c9.05,12.71,18.85,24.52,26.17,38.33c7.14,13.48,16.49,25.8,25.03,38.52c6.55,9.75,12.32,19.87,16.33,30.95
	C634.85,500.01,635.05,500.89,635.6,502.8z"/>
<path class="st0" d="M598.26,373.77c6.7-2.15,13.09-4.2,19.78-6.34c19.51,43.05,34.47,87.52,46.69,133.24
	c-1.06-1.31-2.36-2.5-3.15-3.96c-5.19-9.6-11.16-18.91-15.19-28.99c-8.55-21.35-20.47-40.9-30.98-61.2
	C609.8,395.69,604.09,384.9,598.26,373.77z"/>
</svg>
